<?xml version="1.0" encoding="utf-8"?>
<!-- Generator: Adobe Illustrator 16.0.0, SVG Export Plug-In . SVG Version: 6.00 Build 0)  -->
<!DOCTYPE svg PUBLIC "-//W3C//DTD SVG 1.1//EN" "http://www.w3.org/Graphics/SVG/1.1/DTD/svg11.dtd">
<svg version="1.1" id="Layer_1" xmlns="http://www.w3.org/2000/svg" xmlns:xlink="http://www.w3.org/1999/xlink" x="0px" y="0px"
	 width="135px" height="118px" viewBox="0 0 135 118" enable-background="new 0 0 135 118" xml:space="preserve">
<g>
	<g>
		<path fill="#F9A735" d="M111.763,53.438c-0.088,2.765-2.4,4.936-5.168,4.849l-81.996-2.593c-2.766-0.087-4.937-2.401-4.85-5.166
			l0.313-9.889c0.088-2.766,2.401-4.937,5.166-4.85l81.997,2.593c2.768,0.087,4.938,2.399,4.851,5.165L111.763,53.438z"/>
		<path d="M106.756,59.14l-0.186-0.001l-82-2.593c-3.229-0.103-5.773-2.814-5.673-6.044l0.313-9.891
			c0.101-3.183,2.675-5.677,5.856-5.677l0.189,0.003l81.997,2.592c1.565,0.05,3.018,0.706,4.088,1.847
			c1.071,1.143,1.634,2.632,1.585,4.197l-0.313,9.89C112.512,56.647,109.94,59.14,106.756,59.14z M25.067,36.639
			c-2.258,0-4.082,1.768-4.154,4.026l-0.312,9.89c-0.071,2.292,1.733,4.215,4.024,4.288l82.131,2.595
			c2.259,0,4.085-1.769,4.154-4.028l0.314-9.889c0.035-1.11-0.364-2.167-1.126-2.978c-0.759-0.81-1.788-1.274-2.9-1.31
			L25.067,36.639z"/>
	</g>
	<g>
		<path fill="#55B848" d="M53.09,11.862c-5.771,2.177-13.317,7.725-15.947,12.86c-2.63,5.135,0.416,23.881,0.751,25.468
			c0.333,1.586-1.335,3.506-6.011,3.674c-4.679,0.166-11.274,1.919-11.859,12.356c-0.586,10.439,2.84,34.778,5.052,36.992
			c2.213,2.214,32.179,4.009,42.183,4.009c10.005,0,41.067,0.374,41.818-1.754c0.752-2.13,0-40.957,0-40.957s0.126-5.386-7.64-7.265
			s-6.89-2.129-7.641-13.652c-0.314-4.852,3.465-11.83,1.713-20.708c-0.652-3.298-3.721-6.205-7.147-8.518
			C81.073,9.448,62.609,8.273,53.09,11.862z"/>
		<path d="M78.478,108.098C78.476,108.098,78.48,108.098,78.478,108.098c-2.602,0-5.031-0.009-7.124-0.015
			c-1.581-0.007-2.971-0.012-4.095-0.012c-4.696,0-14.475-0.405-24.081-1.176c-16.989-1.367-18.28-2.658-18.703-3.082
			c-2.613-2.61-5.848-27.892-5.299-37.64c0.465-8.33,4.849-12.881,12.677-13.16c3.392-0.122,4.569-1.175,4.92-1.622
			c0.261-0.332,0.36-0.687,0.288-1.027c-0.04-0.193-3.616-20.289-0.675-26.031c2.777-5.42,10.677-11.107,16.405-13.268
			c3.662-1.381,8.795-2.142,14.455-2.142c8.988,0,17.263,1.816,21.591,4.738c4.377,2.952,6.903,6,7.508,9.058
			c1.121,5.688,0.037,10.648-0.834,14.634c-0.523,2.396-0.976,4.465-0.862,6.184c0.078,1.202,0.139,2.284,0.193,3.256
			c0.454,8.09,0.454,8.09,6.798,9.624c8.336,2.017,8.295,7.863,8.29,8.112c0.126,6.475,0.715,39.055-0.048,41.22
			C109.512,106.797,109.047,108.098,78.478,108.098z M67.246,10.628c-5.46,0-10.379,0.721-13.854,2.032
			c-5.433,2.049-12.898,7.391-15.489,12.451c-2.454,4.788,0.422,22.989,0.826,24.904c0.175,0.835-0.044,1.697-0.615,2.428
			c-0.753,0.961-2.44,2.137-6.199,2.272c-7.006,0.25-10.617,4.029-11.037,11.554c-0.637,11.351,3.055,34.595,4.802,36.341
			c1.258,1.148,23.315,3.759,41.58,3.759c1.127,0,2.515,0.005,4.101,0.01c2.091,0.006,4.519,0.016,7.118,0.016
			c23.479,0,28.83-0.82,29.829-1.352c0.466-2.584,0.211-25.443-0.081-40.518c0.003-0.223-0.038-4.771-6.988-6.452
			c-7.395-1.789-7.609-2.491-8.097-11.184c-0.054-0.967-0.114-2.043-0.192-3.241c-0.128-1.958,0.348-4.137,0.899-6.659
			c0.881-4.031,1.879-8.6,0.826-13.939c-0.515-2.601-2.799-5.284-6.789-7.977C83.883,12.374,75.782,10.628,67.246,10.628z"/>
	</g>
	<g>
		<g>
			<path fill-rule="evenodd" clip-rule="evenodd" fill="#FFFFFF" d="M40.746,36.033c-0.1,2.229-0.105,4.629-0.058,6.552
				c0.058,2.412,0.193,4.627-0.122,6.975c-0.13,0.986-0.391,1.957-0.662,2.946c-0.254,0.933-0.473,1.973-0.841,2.765
				c-0.544,1.177-1.466,2.349-1.924,3.488c-0.174,0.435-0.312,0.884-0.541,1.262c-0.549,0.915-1.385,1.568-2.103,2.406
				c-0.708,0.821-1.444,1.638-2.106,2.464c-0.664,0.835-1.483,1.544-2.223,2.344c-0.734,0.797-1.473,1.637-2.164,2.405
				c-1.453,1.616-3.01,3.085-4.39,4.75c-1.37,1.655-2.631,3.408-3.726,5.41c-2.084,3.812-4.008,8.124-4.99,13.227
				c-0.528,2.748-0.689,5.694-0.302,8.479c0.19,1.357,0.574,2.479,0.962,3.607c0.371,1.073,0.863,2.181,1.444,3.124
				c0.482,0.789,1.172,1.485,1.743,2.225c0.582,0.755,1.333,1.351,1.984,2.046c1.339,1.427,3.294,2.204,5.41,2.644
				c3.313,0.69,6.938,1.217,10.703,1.384c1.266,0.056,2.582-0.121,3.967-0.061c2.615,0.116,5.309,0.021,7.935,0.12
				c2.603,0.097,5.244,0.346,7.696,0.12c1.258-0.115,2.436-0.36,3.667-0.36c6.013,0,12.094-0.458,18.157,0.602
				c2.388,0.416,4.754,0.793,7.153,0.903c2.585,0.116,5.213-0.062,7.755-0.184c2.496-0.117,5.021-0.352,7.336-0.72
				c2.332-0.372,4.628-0.637,6.612-1.442c0.929-0.378,1.795-0.934,2.706-1.323c0.962-0.412,1.951-0.735,2.826-1.203
				c1.942-1.037,3.321-1.877,4.629-3.427c1.221-1.446,2.102-3.16,2.766-5.29c1.461-4.689-0.206-9.303-1.202-13.408
				c-0.5-2.059-1.515-3.902-2.405-5.649c-0.924-1.812-1.936-3.593-2.945-5.112c-2.243-3.365-4.489-6.367-6.913-9.197
				c-0.634-0.736-1.264-1.442-1.925-2.104c-0.677-0.677-1.477-1.15-2.225-1.802c-0.699-0.612-1.304-1.362-1.985-2.045
				c-3.422-3.443-6.564-6.682-8.595-11.483c-0.758-1.792-0.715-4.544-0.603-7.095c0.121-2.723,0.142-5.202,0.24-7.815
				c0.26-6.931-0.735-12.782-2.043-17.976c-0.271-1.07-0.694-2.032-1.082-2.946c-0.359-0.842-0.72-1.855-1.203-2.826
				c-0.351-0.706-1.267-2-1.263-2.766c0.004-0.426,0.369-0.923,0.602-1.383c1.153-2.295,1.794-5.659,0.239-7.935
				c-1.054-1.548-2.765-2.916-5.47-2.706c-3.389,0.264-4.624,2.616-6.191,4.81C70.088,3.13,61.067,3.085,56.378,5.072
				c-1.079-1.314-1.937-2.961-3.548-3.849c-2.671-1.472-6.928-0.074-8.116,2.405c-0.798,1.668-1.178,4.477-0.42,6.373
				c0.359,0.904,1.061,1.58,1.381,2.405C41.3,18.267,41.148,27.195,40.746,36.033z"/>
		</g>
		<g>
			<path fill-rule="evenodd" clip-rule="evenodd" d="M45.675,12.406c-0.32-0.825-1.021-1.501-1.381-2.405
				c-0.758-1.896-0.378-4.704,0.42-6.373c1.188-2.479,5.445-3.877,8.116-2.405c1.611,0.888,2.469,2.535,3.548,3.849
				c4.689-1.987,13.71-1.942,18.698-0.241c1.567-2.194,2.803-4.546,6.191-4.81c2.705-0.21,4.416,1.158,5.47,2.706
				c1.555,2.276,0.914,5.64-0.239,7.935c-0.232,0.46-0.598,0.958-0.602,1.383c-0.004,0.765,0.912,2.06,1.263,2.766
				c0.483,0.97,0.844,1.983,1.203,2.826c0.388,0.914,0.812,1.876,1.082,2.946c1.308,5.194,2.303,11.045,2.043,17.976
				c-0.099,2.613-0.119,5.092-0.24,7.815c-0.112,2.55-0.155,5.303,0.603,7.095c2.03,4.801,5.173,8.04,8.595,11.483
				c0.682,0.683,1.286,1.433,1.985,2.045c0.748,0.651,1.548,1.125,2.225,1.802c0.661,0.662,1.291,1.368,1.925,2.104
				c2.424,2.83,4.67,5.832,6.913,9.197c1.01,1.52,2.021,3.3,2.945,5.112c0.891,1.747,1.905,3.591,2.405,5.649
				c0.996,4.105,2.663,8.719,1.202,13.408c-0.664,2.13-1.545,3.844-2.766,5.29c-1.308,1.55-2.687,2.39-4.629,3.427
				c-0.875,0.468-1.864,0.791-2.826,1.203c-0.911,0.39-1.777,0.945-2.706,1.323c-1.984,0.806-4.28,1.07-6.612,1.442
				c-2.315,0.368-4.84,0.603-7.336,0.72c-2.542,0.121-5.17,0.3-7.755,0.184c-2.399-0.11-4.766-0.487-7.153-0.903
				c-6.062-1.06-12.144-0.602-18.157-0.602c-1.232,0-2.409,0.245-3.667,0.36c-2.452,0.226-5.093-0.023-7.696-0.12
				c-2.626-0.099-5.32-0.004-7.935-0.12c-1.385-0.061-2.701,0.116-3.967,0.061c-3.765-0.167-7.39-0.693-10.703-1.384
				c-2.115-0.439-4.071-1.217-5.41-2.644c-0.652-0.695-1.403-1.291-1.984-2.046c-0.57-0.739-1.261-1.436-1.743-2.225
				c-0.581-0.943-1.073-2.051-1.444-3.124c-0.389-1.128-0.772-2.25-0.962-3.607c-0.387-2.784-0.227-5.73,0.302-8.479
				c0.982-5.103,2.906-9.415,4.99-13.227c1.095-2.002,2.356-3.755,3.726-5.41c1.38-1.665,2.938-3.134,4.39-4.75
				c0.69-0.769,1.429-1.608,2.164-2.405c0.74-0.8,1.559-1.509,2.223-2.344c0.663-0.826,1.398-1.643,2.106-2.464
				c0.718-0.838,1.554-1.491,2.103-2.406c0.228-0.378,0.367-0.827,0.541-1.262c0.458-1.139,1.38-2.311,1.924-3.488
				c0.368-0.792,0.586-1.832,0.841-2.765c0.271-0.989,0.532-1.959,0.662-2.946c0.315-2.348,0.18-4.563,0.122-6.975
				c-0.047-1.923-0.042-4.324,0.058-6.552C41.148,27.195,41.3,18.267,45.675,12.406z M84.756,115.991
				c4.485,0.276,8.833-0.196,13.285-0.539c2.241-0.173,4.264-0.528,6.071-0.964c1.853-0.443,3.36-1.238,5.052-1.981
				c2.635-1.161,4.908-1.982,6.612-3.97c1.296-1.511,2.164-3.196,2.705-5.35c0.952-3.786-0.237-7.241-1.022-10.461
				c-1.03-4.236-2.897-7.285-4.809-10.462c-0.973-1.614-2.068-3.074-3.127-4.567c-2.193-3.099-4.271-5.997-6.973-8.298
				c-2.759-2.349-5.267-4.931-7.637-7.695c-1.172-1.368-2.214-2.819-3.247-4.389c-2.111-3.212-2.545-7.487-2.164-12.625
				c0.356-4.77,0.374-10.415-0.18-14.79c-0.427-3.382-0.929-6.679-1.862-9.619c-0.3-0.942-0.746-1.832-1.083-2.766
				c-0.302-0.837-0.732-1.688-1.202-2.646c-0.391-0.794-1.13-1.908-1.143-2.705c-0.02-1.118,0.781-2.13,1.201-3.125
				c0.518-1.221,0.955-3.202,0.422-4.51c-0.604-1.481-2.07-2.821-4.208-2.705c-2.292,0.124-2.995,1.521-4.089,2.946
				c-0.208,0.272-0.558,0.672-0.78,1.143c-0.271,0.565-0.328,1.012-0.842,1.082c-0.538,0.073-1.512-0.532-2.105-0.722
				c-4.317-1.385-11.517-1.152-15.51,0.121c-0.639,0.203-1.614,0.779-2.165,0.722c-0.459-0.048-0.814-0.508-1.143-1.022
				c-0.806-1.262-1.863-2.875-3.127-3.426c-2.09-0.913-4.572,0.384-5.352,1.923c-0.533,1.059-0.887,3.034-0.419,4.51
				c0.161,0.505,0.587,1.075,0.902,1.623c0.275,0.479,0.871,1.122,0.842,1.683c-0.022,0.419-0.643,1.327-0.962,1.804
				c-0.467,0.7-0.821,1.199-1.081,1.744c-0.624,1.305-0.947,2.897-1.384,4.269c-0.916,2.874-1.153,6.29-1.381,9.86
				c-0.226,3.476-0.343,7.189-0.302,10.701c0.036,3.029,0.26,7.363-0.421,10.401c-0.365,1.631-0.769,3.027-1.262,4.328
				c-0.495,1.304-1.272,2.423-1.924,3.729c-0.667,1.333-1.198,2.438-2.165,3.427c-0.893,0.91-1.783,1.88-2.646,3.006
				c-0.796,1.037-1.807,1.926-2.705,2.885c-1.858,1.982-3.634,3.951-5.412,5.894c-1.329,1.451-2.657,3.06-3.729,4.688
				c-0.373,0.569-0.614,1.244-0.96,1.863c-2.03,3.62-3.761,7.689-4.63,12.264c-0.599,3.165-0.739,7.112,0.182,10.102
				c0.863,2.813,2.315,5.256,4.268,7.033c0.505,0.459,0.893,1.002,1.382,1.383c1.619,1.262,3.92,1.593,6.375,2.104
				c3.145,0.655,6.763,0.803,10.399,0.78c3.077-0.015,7.218,0.112,10.582,0.183c3.247,0.066,7.572,0.556,9.921-0.902
				c0.651-0.405,1.39-1.173,2.042-1.805c1.445-1.39,2.45-2.598,3.006-4.809c0.282-1.118,0.699-2.046,0.662-3.246
				c-0.034-1.044-0.387-2.403-0.841-3.488c-0.944-2.248-1.946-3.698-3.668-4.99c-0.841-0.632-1.92-1.133-2.885-1.504
				c-2.135-0.814-4.619-1.003-7.276-1.502c-1.206-0.227-2.406-0.188-3.726-0.24c-1.241-0.05-2.711-0.046-4.149,0
				c-1.563,0.049-2.694-0.127-4.269-0.119c-1.036,0.005-3.271,0.498-3.427-0.723c-0.144-1.141,1.403-1.082,2.946-1.082
				c1.517,0,2.631,0.121,3.847,0.121c2.605,0,5.554-0.091,7.275,0c1.145,0.059,2.319,0.348,3.426,0.481
				c1.206,0.144,2.292,0.417,3.307,0.659c4.51,1.079,7.527,2.799,9.439,6.374c0.952,1.778,1.763,3.868,1.804,6.132
				c0.022,1.207-0.382,2.165-0.661,3.246c-0.286,1.114-0.59,1.988-1.083,2.887c-0.85,1.546-2.001,2.63-3.187,3.727
				c-0.096,0.088-0.376,0.277-0.3,0.482c2.237-0.08,5.23,0.018,8.296-0.12c0.048-3.415-0.076-5.793,1.023-8.237
				c0.514-1.147,0.992-2.29,1.503-3.308c0.531-1.06,1.313-1.777,2.042-2.704c0.734-0.932,1.493-1.886,2.286-2.524
				c1.65-1.337,3.677-1.999,5.711-2.948c5.039-2.35,10.043-4.328,16.893-4.808c1.212-0.087,3.271-0.604,3.428,0.602
				c0.141,1.09-1.181,1.046-2.345,1.142c-2.584,0.211-4.038,0.393-6.071,0.78c-0.984,0.188-1.977,0.357-2.825,0.602
				c-3.509,1.011-6.707,2.717-9.74,4.03c-1.706,0.735-3.167,1.244-4.33,2.523c-1.103,1.216-2.384,2.235-3.186,3.726
				c-1.663,3.099-2.916,5.995-2.586,11.183C76.651,114.606,80.433,115.729,84.756,115.991z"/>
		</g>
		<g>
			<path fill-rule="evenodd" clip-rule="evenodd" fill="#C47B5B" d="M72.188,114.488c-0.33-5.188,0.923-8.084,2.586-11.183
				c0.802-1.49,2.083-2.51,3.186-3.726c1.163-1.279,2.624-1.788,4.33-2.523c3.033-1.313,6.231-3.02,9.74-4.03
				c0.849-0.244,1.841-0.413,2.825-0.602c2.033-0.388,3.487-0.569,6.071-0.78c1.164-0.096,2.485-0.052,2.345-1.142
				c-0.156-1.205-2.216-0.688-3.428-0.602c-6.85,0.479-11.854,2.458-16.893,4.808c-2.034,0.949-4.061,1.611-5.711,2.948
				c-0.793,0.639-1.552,1.593-2.286,2.524c-0.729,0.927-1.511,1.645-2.042,2.704c-0.511,1.018-0.989,2.16-1.503,3.308
				c-1.1,2.444-0.976,4.822-1.023,8.237c-3.066,0.138-6.059,0.04-8.296,0.12c-0.076-0.205,0.205-0.395,0.3-0.482
				c1.185-1.097,2.337-2.181,3.187-3.727c0.492-0.898,0.796-1.772,1.083-2.887c0.279-1.081,0.683-2.039,0.661-3.246
				c-0.041-2.264-0.852-4.354-1.804-6.132c-1.912-3.575-4.929-5.295-9.439-6.374c-1.014-0.242-2.101-0.516-3.307-0.659
				c-1.107-0.134-2.281-0.423-3.426-0.481c-1.721-0.091-4.67,0-7.275,0c-1.216,0-2.33-0.121-3.847-0.121
				c-1.543,0-3.09-0.059-2.946,1.082c0.155,1.221,2.391,0.728,3.427,0.723c1.575-0.008,2.706,0.168,4.269,0.119
				c1.438-0.046,2.908-0.05,4.149,0c1.32,0.052,2.521,0.014,3.726,0.24c2.657,0.499,5.141,0.688,7.276,1.502
				c0.964,0.371,2.043,0.872,2.885,1.504c1.722,1.292,2.724,2.742,3.668,4.99c0.454,1.085,0.807,2.444,0.841,3.488
				c0.038,1.2-0.38,2.128-0.662,3.246c-0.556,2.211-1.561,3.419-3.006,4.809c-0.653,0.632-1.392,1.399-2.042,1.805
				c-2.349,1.458-6.674,0.969-9.921,0.902c-3.364-0.07-7.505-0.197-10.582-0.183c-3.637,0.022-7.255-0.125-10.399-0.78
				c-2.455-0.512-4.756-0.843-6.375-2.104c-0.489-0.381-0.876-0.924-1.382-1.383c-1.952-1.777-3.404-4.22-4.268-7.033
				c-0.92-2.989-0.781-6.937-0.182-10.102c0.869-4.574,2.6-8.644,4.63-12.264c0.346-0.619,0.587-1.294,0.96-1.863
				c1.072-1.629,2.399-3.237,3.729-4.688c1.777-1.942,3.553-3.911,5.412-5.894c0.897-0.959,1.908-1.848,2.705-2.885
				c0.863-1.126,1.753-2.096,2.646-3.006c0.966-0.988,1.497-2.094,2.165-3.427c0.652-1.306,1.429-2.425,1.924-3.729
				c0.493-1.301,0.897-2.697,1.262-4.328c0.682-3.038,0.457-7.372,0.421-10.401c-0.042-3.512,0.076-7.225,0.302-10.701
				c0.228-3.57,0.465-6.986,1.381-9.86c0.437-1.371,0.761-2.963,1.384-4.269c0.26-0.545,0.614-1.044,1.081-1.744
				c0.319-0.477,0.94-1.384,0.962-1.804c0.029-0.562-0.567-1.204-0.842-1.683c-0.315-0.548-0.741-1.117-0.902-1.623
				c-0.468-1.476-0.113-3.451,0.419-4.51c0.78-1.539,3.262-2.836,5.352-1.923c1.264,0.551,2.321,2.164,3.127,3.426
				c0.329,0.514,0.684,0.974,1.143,1.022c0.55,0.057,1.526-0.519,2.165-0.722c3.993-1.272,11.192-1.506,15.51-0.121
				c0.594,0.19,1.567,0.794,2.105,0.722c0.514-0.07,0.571-0.516,0.842-1.082c0.223-0.47,0.572-0.87,0.78-1.143
				c1.094-1.425,1.797-2.822,4.089-2.946c2.138-0.116,3.604,1.224,4.208,2.705c0.533,1.308,0.096,3.289-0.422,4.51
				c-0.42,0.995-1.221,2.007-1.201,3.125c0.013,0.797,0.752,1.911,1.143,2.705c0.47,0.958,0.9,1.809,1.202,2.646
				c0.337,0.934,0.783,1.824,1.083,2.766c0.934,2.939,1.436,6.236,1.862,9.619c0.554,4.375,0.536,10.02,0.18,14.79
				c-0.381,5.138,0.053,9.413,2.164,12.625c1.033,1.569,2.075,3.021,3.247,4.389c2.37,2.765,4.878,5.347,7.637,7.695
				c2.702,2.301,4.779,5.199,6.973,8.298c1.059,1.493,2.154,2.953,3.127,4.567c1.911,3.177,3.778,6.226,4.809,10.462
				c0.785,3.22,1.975,6.675,1.022,10.461c-0.541,2.153-1.409,3.839-2.705,5.35c-1.704,1.987-3.978,2.809-6.612,3.97
				c-1.691,0.743-3.199,1.538-5.052,1.981c-1.808,0.436-3.83,0.791-6.071,0.964c-4.452,0.343-8.8,0.815-13.285,0.539
				C80.433,115.729,76.651,114.606,72.188,114.488z M65.516,30.382c-1.899,0.065-3.38,1.352-4.088,2.525
				c-1.055,1.748-1.783,4.902-2.284,7.215c-0.604,2.785-1.472,5.2-1.625,7.936c-0.137,2.473,0.784,3.877,1.923,5.17
				c2.12,2.401,5.451,3.31,8.961,2.404c0.338-0.087,0.74-0.142,1.081-0.241c2.612-0.761,4.02-2.354,4.629-5.05
				c0.43-1.895,0.061-4.181-0.361-6.012c-0.321-1.397-0.786-3.016-1.142-4.449c-0.752-3.036-1.345-5.892-3.126-7.996
				C68.403,31.101,67.318,30.321,65.516,30.382z M53.132,34.17c0.434,1.056,2.352,1.514,3.427,0.721
				c0.923-0.682,0.829-2.761,0.061-3.427c-0.452-0.39-1.216-0.486-1.926-0.36C53.363,31.34,52.523,32.689,53.132,34.17z
				 M74.714,31.945c-0.799,1.17-0.133,3.035,0.842,3.427c2.399,0.964,3.918-1.781,2.706-3.427c-0.352-0.478-1.402-0.944-2.225-0.781
				C75.442,31.281,74.967,31.578,74.714,31.945z"/>
		</g>
		<g>
			<path fill-rule="evenodd" clip-rule="evenodd" d="M69.484,31.885c1.781,2.104,2.374,4.96,3.126,7.996
				c0.355,1.433,0.82,3.052,1.142,4.449c0.422,1.832,0.791,4.118,0.361,6.012c-0.609,2.696-2.017,4.289-4.629,5.05
				c-0.341,0.099-0.743,0.154-1.081,0.241c-3.51,0.905-6.841-0.003-8.961-2.404c-1.139-1.293-2.06-2.698-1.923-5.17
				c0.152-2.736,1.02-5.15,1.625-7.936c0.501-2.312,1.229-5.467,2.284-7.215c0.708-1.173,2.189-2.46,4.088-2.525
				C67.318,30.321,68.403,31.101,69.484,31.885z M62.931,33.809c-0.622,1.02-0.818,2.341-1.202,3.667
				c-0.586,2.021-1.557,5.546-1.985,7.756c-0.23,1.189-0.636,3.145-0.36,4.389c0.193,0.868,1.019,2.008,1.623,2.645
				c1.45,1.523,3.793,2.222,6.133,1.864c0.294-0.045,0.644-0.213,1.022-0.301c0.356-0.083,0.747-0.134,1.082-0.24
				c1.854-0.591,3.024-2.086,3.246-4.329c0.254-2.604-0.666-4.688-1.081-6.613c-0.279-1.286-0.534-2.554-0.964-3.908
				c-0.459-1.458-0.548-2.41-1.141-3.728c-0.685-1.517-1.863-3.042-4.089-2.706C64.155,32.466,63.289,33.224,62.931,33.809z"/>
		</g>
		<g>
			<path fill-rule="evenodd" clip-rule="evenodd" d="M54.693,31.104c0.71-0.125,1.474-0.029,1.926,0.36
				c0.769,0.666,0.862,2.745-0.061,3.427c-1.075,0.793-2.993,0.335-3.427-0.721C52.523,32.689,53.363,31.34,54.693,31.104z"/>
		</g>
		<g>
			<path fill-rule="evenodd" clip-rule="evenodd" d="M76.037,31.164c0.822-0.163,1.873,0.304,2.225,0.781
				c1.212,1.646-0.307,4.392-2.706,3.427c-0.975-0.392-1.641-2.257-0.842-3.427C74.967,31.578,75.442,31.281,76.037,31.164z"/>
		</g>
		<g>
			<path fill-rule="evenodd" clip-rule="evenodd" fill="#FFFFFF" d="M65.215,32.306c2.226-0.336,3.405,1.188,4.089,2.706
				c0.593,1.318,0.682,2.27,1.141,3.728c0.43,1.354,0.685,2.622,0.964,3.908c0.415,1.925,1.335,4.009,1.081,6.613
				c-0.222,2.243-1.393,3.738-3.246,4.329c-0.335,0.106-0.726,0.158-1.082,0.24c-0.378,0.087-0.728,0.255-1.022,0.301
				c-2.34,0.357-4.683-0.341-6.133-1.864c-0.604-0.636-1.43-1.776-1.623-2.645c-0.275-1.244,0.13-3.2,0.36-4.389
				c0.428-2.21,1.398-5.734,1.985-7.756c0.383-1.326,0.58-2.648,1.202-3.667C63.289,33.224,64.155,32.466,65.215,32.306z
				 M69.003,43.969c-0.678-0.485-2.257-0.5-3.308-0.481c-1.712,0.03-3.575,0.451-3.787,1.563c-0.134,0.711,0.131,1.508,0.6,1.803
				c0.819,0.517,2.179,0.071,2.468,1.204c0.145,0.58-0.06,1.33-0.062,2.104c-1.276-0.272-2.842-0.379-2.465,1.022
				c0.245,0.904,2.338,0.782,3.608,0.782c1.419,0,3.345-0.02,3.547-0.842c0.434-1.768-1.81-0.931-2.887-1.083
				c0.14-1.024-0.125-2.451,0.602-2.886C69.761,47.51,70.352,44.93,69.003,43.969z"/>
		</g>
		<g>
			<path fill-rule="evenodd" clip-rule="evenodd" d="M67.319,47.155c-0.728,0.435-0.462,1.861-0.602,2.886
				c1.078,0.152,3.321-0.685,2.887,1.083c-0.202,0.822-2.127,0.842-3.547,0.842c-1.271,0-3.364,0.123-3.608-0.782
				c-0.376-1.401,1.189-1.294,2.465-1.022c0.002-0.774,0.207-1.524,0.062-2.104c-0.289-1.133-1.648-0.687-2.468-1.204
				c-0.469-0.295-0.734-1.091-0.6-1.803c0.211-1.113,2.075-1.533,3.787-1.563c1.05-0.018,2.63-0.004,3.308,0.481
				C70.352,44.93,69.761,47.51,67.319,47.155z"/>
		</g>
	</g>
	<g>
		<path fill="#55B848" d="M34.588,53.505c0,0,14.265,37.077,14.558,37.976c0.291,0.898-6.076,0-6.076,0S32.736,70.998,28.321,54.353
			c0,0,1.5-0.377,2.928-0.457C32.674,53.817,33.957,53.647,34.588,53.505z"/>
		<path d="M47.701,92.731c-1.84,0-4.631-0.39-4.75-0.407l-0.44-0.063l-0.199-0.397c-0.104-0.204-10.427-20.752-14.813-37.293
			l-0.221-0.833l0.836-0.21c0.065-0.017,1.596-0.398,3.088-0.481c1.413-0.079,2.649-0.248,3.201-0.372l0.719-0.161l0.262,0.686
			c0.582,1.515,14.276,37.109,14.571,38.02c0.103,0.314,0.051,0.647-0.141,0.911C49.496,92.568,48.922,92.731,47.701,92.731z
			 M43.632,90.695c0.854,0.109,2.764,0.334,4.069,0.334c0.14,0,0.261-0.003,0.368-0.009c-1.566-4.153-9.486-24.763-14.022-36.551
			c-0.705,0.109-1.679,0.217-2.751,0.277c-0.681,0.038-1.388,0.15-1.918,0.25C33.487,69.933,42.202,87.808,43.632,90.695z"/>
	</g>
	<g>
		<path fill="#55B848" d="M96.627,55.714c0,0-10.053,35.39-11.474,39.064c0,0,4.775-2.062,6.89-2.899
			c0,0,8.981-30.433,10.147-34.433c0,0-1.272-0.288-2.499-0.638S96.771,55.794,96.627,55.714z"/>
		<path d="M83.63,96.365l0.731-1.895c1.388-3.596,11.346-38.636,11.447-38.99l0.293-1.038l0.941,0.53
			c0.186,0.086,1.74,0.69,2.881,1.017c1.192,0.339,2.443,0.623,2.454,0.627l0.886,0.199l-0.256,0.869
			c-1.168,4-10.146,34.436-10.146,34.436l-0.118,0.399l-0.386,0.152c-2.077,0.82-6.817,2.867-6.864,2.889L83.63,96.365z
			 M97.188,56.857c-1.45,5.094-8.273,29.021-10.616,36.387c1.439-0.616,3.45-1.469,4.772-2.003
			c0.996-3.376,8.06-27.316,9.778-33.175c-0.47-0.115-1.069-0.271-1.666-0.439C98.756,57.427,97.863,57.113,97.188,56.857z"/>
	</g>
</g>
</svg>
